<svg width="290" height="290" viewBox="0 0 290 290" fill="none" xmlns="http://www.w3.org/2000/svg">
<circle cx="145" cy="145" r="145" fill="#1E1E1E"/>
<circle cx="145" cy="145" r="145" fill="black" fill-opacity="0.2"/>
<path d="M143.856 16.0052C215.098 15.3736 273.363 72.6146 273.995 143.857C274.626 215.098 217.385 273.363 146.143 273.995C74.9014 274.627 16.6364 217.386 16.0048 146.144C15.3733 74.9018 72.6142 16.6368 143.856 16.0052ZM146.046 263.055C211.246 262.477 263.633 209.154 263.055 143.954C262.477 78.7535 211.246 262.477 146.046 263.055C80.8464 263.633 26.3667 80.8467 26.9447 146.047C27.5227 211.247 80.8464 263.633 146.046 263.055Z" fill="white"/>
<path d="M57.9686 145V128.2H66.1766C68.2886 128.2 69.8726 128.6 70.9286 129.4C72.0006 130.2 72.5366 131.256 72.5366 132.568C72.5366 133.448 72.3206 134.216 71.8886 134.872C71.4566 135.512 70.8646 136.008 70.1126 136.36C69.3606 136.712 68.4966 136.888 67.5206 136.888L67.9766 135.904C69.0326 135.904 69.9686 136.08 70.7846 136.432C71.6006 136.768 72.2326 137.272 72.6806 137.944C73.1446 138.616 73.3766 139.44 73.3766 140.416C73.3766 141.856 72.8086 142.984 71.6726 143.8C70.5366 144.6 68.8646 145 66.6566 145H57.9686ZM61.8326 142.072H66.3686C67.3766 142.072 68.1366 141.912 68.6486 141.592C69.1766 141.256 69.4406 140.728 69.4406 140.008C69.4406 139.304 69.1766 138.784 68.6486 138.448C68.1366 138.096 67.3766 137.92 66.3686 137.92H61.5446V135.088H65.6966C66.6406 135.088 67.3606 134.928 67.8566 134.608C68.3686 134.272 68.6246 133.768 68.6246 133.096C68.6246 132.44 68.3686 131.952 67.8566 131.632C67.3606 131.296 66.6406 131.128 65.6966 131.128H61.8326V142.072ZM82.2001 145.192C80.8241 145.192 79.6001 144.904 78.5281 144.328C77.4721 143.752 76.6321 142.968 76.0081 141.976C75.4001 140.968 75.0961 139.824 75.0961 138.544C75.0961 137.248 75.4001 136.104 76.0081 135.112C76.6321 134.104 77.4721 133.32 78.5281 132.76C79.6001 132.184 80.8241 131.896 82.2001 131.896C83.5601 131.896 84.7761 132.184 85.8481 132.76C86.9201 133.32 87.7601 134.096 88.3681 135.088C88.9761 136.08 89.2801 137.232 89.2801 138.544C89.2801 139.824 88.9761 140.968 88.3681 141.976C87.7601 142.968 86.9201 143.752 85.8481 144.328C84.7761 144.904 83.5601 145.192 82.2001 145.192ZM82.2001 142.12C82.8241 142.12 83.3841 141.976 83.8801 141.688C84.3761 141.4 84.7681 140.992 85.0561 140.464C85.3441 139.92 85.4881 139.28 85.4881 138.544C85.4881 137.792 85.3441 137.152 85.0561 136.624C84.7681 136.096 84.3761 135.688 83.8801 135.4C83.3841 135.112 82.8241 134.968 82.2001 134.968C81.5761 134.968 81.0161 135.112 80.5201 135.4C80.0241 135.688 79.6241 136.096 79.3201 136.624C79.0321 137.152 78.8881 137.792 78.8881 138.544C78.8881 139.28 79.0321 139.92 79.3201 140.464C79.6241 140.992 80.0241 141.4 80.5201 141.688C81.0161 141.976 81.5761 142.12 82.2001 142.12ZM97.9267 145.192C96.5507 145.192 95.3267 144.904 94.2547 144.328C93.1987 143.752 92.3587 142.968 91.7347 141.976C91.1267 140.968 90.8227 139.824 90.8227 138.544C90.8227 137.248 91.1267 136.104 91.7347 135.112C92.3587 134.104 93.1987 133.32 94.2547 132.76C95.3267 132.184 96.5507 131.896 97.9267 131.896C99.2867 131.896 100.503 132.184 101.575 132.76C102.647 133.32 103.487 134.096 104.095 135.088C104.703 136.08 105.007 137.232 105.007 138.544C105.007 139.824 104.703 140.968 104.095 141.976C103.487 142.968 102.647 143.752 101.575 144.328C100.503 144.904 99.2867 145.192 97.9267 145.192ZM97.9267 142.12C98.5507 142.12 99.1107 141.976 99.6067 141.688C100.103 141.4 100.495 140.992 100.783 140.464C101.071 139.92 101.215 139.28 101.215 138.544C101.215 137.792 101.071 137.152 100.783 136.624C100.495 136.096 100.103 135.688 99.6067 135.4C99.1107 135.112 98.5507 134.968 97.9267 134.968C97.3027 134.968 96.7427 135.112 96.2467 135.4C95.7507 135.688 95.3507 136.096 95.0467 136.624C94.7587 137.152 94.6147 137.792 94.6147 138.544C94.6147 139.28 94.7587 139.92 95.0467 140.464C95.3507 140.992 95.7507 141.4 96.2467 141.688C96.7427 141.976 97.3027 142.12 97.9267 142.12ZM110.605 142.36L110.701 137.8L116.725 132.088H121.189L115.405 137.968L113.461 139.552L110.605 142.36ZM107.509 145V127.192H111.253V145H107.509ZM117.133 145L112.765 139.576L115.117 136.672L121.669 145H117.133ZM135.934 145.288C134.59 145.288 133.302 145.112 132.07 144.76C130.838 144.392 129.846 143.92 129.094 143.344L130.414 140.416C131.134 140.928 131.982 141.352 132.958 141.688C133.95 142.008 134.95 142.168 135.958 142.168C136.726 142.168 137.342 142.096 137.806 141.952C138.286 141.792 138.638 141.576 138.862 141.304C139.086 141.032 139.198 140.72 139.198 140.368C139.198 139.92 139.022 139.568 138.67 139.312C138.318 139.04 137.854 138.824 137.278 138.664C136.702 138.488 136.062 138.328 135.358 138.184C134.67 138.024 133.974 137.832 133.27 137.608C132.582 137.384 131.95 137.096 131.374 136.744C130.798 136.392 130.326 135.928 129.958 135.352C129.606 134.776 129.43 134.04 129.43 133.144C129.43 132.184 129.686 131.312 130.198 130.528C130.726 129.728 131.51 129.096 132.55 128.632C133.606 128.152 134.926 127.912 136.51 127.912C137.566 127.912 138.606 128.04 139.63 128.296C140.654 128.536 141.558 128.904 142.342 129.4L141.142 132.352C140.358 131.904 139.574 131.576 138.79 131.368C138.006 131.144 137.238 131.032 136.486 131.032C135.734 131.032 135.118 131.12 134.638 131.296C134.158 131.472 133.814 131.704 133.606 131.992C133.398 132.264 133.294 132.584 133.294 132.952C133.294 133.384 133.47 133.736 133.822 134.008C134.174 134.264 134.638 134.472 135.214 134.632C135.79 134.792 136.422 134.952 137.11 135.112C137.814 135.272 138.51 135.456 139.198 135.664C139.902 135.872 140.542 136.152 141.118 136.504C141.694 136.856 142.158 137.32 142.51 137.896C142.878 138.472 143.062 139.2 143.062 140.08C143.062 141.024 142.798 141.888 142.27 142.672C141.742 143.456 140.95 144.088 139.894 144.568C138.854 145.048 137.534 145.288 135.934 145.288ZM151.863 145.192C150.391 145.192 149.095 144.904 147.975 144.328C146.871 143.752 146.015 142.968 145.407 141.976C144.799 140.968 144.495 139.824 144.495 138.544C144.495 137.248 144.791 136.104 145.383 135.112C145.991 134.104 146.815 133.32 147.855 132.76C148.895 132.184 150.071 131.896 151.383 131.896C152.647 131.896 153.783 132.168 154.791 132.712C155.815 133.24 156.623 134.008 157.215 135.016C157.807 136.008 158.103 137.2 158.103 138.592C158.103 138.736 158.095 138.904 158.079 139.096C158.063 139.272 158.047 139.44 158.031 139.6H147.543V137.416H156.063L154.623 138.064C154.623 137.392 154.487 136.808 154.215 136.312C153.943 135.816 153.567 135.432 153.087 135.16C152.607 134.872 152.047 134.728 151.407 134.728C150.767 134.728 150.199 134.872 149.703 135.16C149.223 135.432 148.847 135.824 148.575 136.336C148.303 136.832 148.167 137.424 148.167 138.112V138.688C148.167 139.392 148.319 140.016 148.623 140.56C148.943 141.088 149.383 141.496 149.943 141.784C150.519 142.056 151.191 142.192 151.959 142.192C152.647 142.192 153.247 142.088 153.759 141.88C154.287 141.672 154.767 141.36 155.199 140.944L157.191 143.104C156.599 143.776 155.855 144.296 154.959 144.664C154.063 145.016 153.031 145.192 151.863 145.192ZM160.595 145V132.088H164.171V135.736L163.667 134.68C164.051 133.768 164.667 133.08 165.515 132.616C166.363 132.136 167.395 131.896 168.611 131.896V135.352C168.451 135.336 168.307 135.328 168.179 135.328C168.051 135.312 167.915 135.304 167.771 135.304C166.747 135.304 165.915 135.6 165.275 136.192C164.651 136.768 164.339 137.672 164.339 138.904V145H160.595ZM174.787 145L169.363 132.088H173.227L177.739 143.2H175.819L180.499 132.088H184.099L178.651 145H174.787ZM185.626 145V132.088H189.37V145H185.626ZM187.498 130.288C186.81 130.288 186.25 130.088 185.818 129.688C185.386 129.288 185.17 128.792 185.17 128.2C185.17 127.608 185.386 127.112 185.818 126.712C186.25 126.312 186.81 126.112 187.498 126.112C188.186 126.112 188.746 126.304 189.178 126.688C189.61 127.056 189.826 127.536 189.826 128.128C189.826 128.752 189.61 129.272 189.178 129.688C188.762 130.088 188.202 130.288 187.498 130.288ZM199.085 145.192C197.693 145.192 196.453 144.912 195.365 144.352C194.277 143.776 193.421 142.984 192.797 141.976C192.189 140.968 191.885 139.824 191.885 138.544C191.885 137.248 192.189 136.104 192.797 135.112C193.421 134.104 194.277 133.32 195.365 132.76C196.453 132.184 197.693 131.896 199.085 131.896C200.445 131.896 201.629 132.184 202.637 132.76C203.645 133.32 204.389 134.128 204.869 135.184L201.965 136.744C201.629 136.136 201.205 135.688 200.693 135.4C200.197 135.112 199.653 134.968 199.061 134.968C198.421 134.968 197.845 135.112 197.333 135.4C196.821 135.688 196.413 136.096 196.109 136.624C195.821 137.152 195.677 137.792 195.677 138.544C195.677 139.296 195.821 139.936 196.109 140.464C196.413 140.992 196.821 141.4 197.333 141.688C197.845 141.976 198.421 142.12 199.061 142.12C199.653 142.12 200.197 141.984 200.693 141.712C201.205 141.424 201.629 140.968 201.965 140.344L204.869 141.928C204.389 142.968 203.645 143.776 202.637 144.352C201.629 144.912 200.445 145.192 199.085 145.192ZM213.269 145.192C211.797 145.192 210.501 144.904 209.381 144.328C208.277 143.752 207.421 142.968 206.813 141.976C206.205 140.968 205.901 139.824 205.901 138.544C205.901 137.248 206.197 136.104 206.789 135.112C207.397 134.104 208.221 133.32 209.261 132.76C210.301 132.184 211.477 131.896 212.789 131.896C214.053 131.896 215.189 132.168 216.197 132.712C217.221 133.24 218.029 134.008 218.621 135.016C219.213 136.008 219.509 137.2 219.509 138.592C219.509 138.736 219.501 138.904 219.485 139.096C219.469 139.272 219.453 139.44 219.437 139.6H208.949V137.416H217.469L216.029 138.064C216.029 137.392 215.893 136.808 215.621 136.312C215.349 135.816 214.973 135.432 214.493 135.16C214.013 134.872 213.453 134.728 212.813 134.728C212.173 134.728 211.605 134.872 211.109 135.16C210.629 135.432 210.253 135.824 209.981 136.336C209.709 136.832 209.573 137.424 209.573 138.112V138.688C209.573 139.392 209.725 140.016 210.029 140.56C210.349 141.088 210.789 141.496 211.349 141.784C211.925 142.056 212.597 142.192 213.365 142.192C214.053 142.192 214.653 142.088 215.165 141.88C215.693 141.672 216.173 141.36 216.605 140.944L218.597 143.104C218.005 143.776 217.261 144.296 216.365 144.664C215.469 145.016 214.437 145.192 213.269 145.192ZM226.345 145.192C225.241 145.192 224.177 145.064 223.153 144.808C222.145 144.536 221.345 144.2 220.753 143.8L222.001 141.112C222.593 141.48 223.289 141.784 224.089 142.024C224.905 142.248 225.705 142.36 226.489 142.36C227.353 142.36 227.961 142.256 228.313 142.048C228.681 141.84 228.865 141.552 228.865 141.184C228.865 140.88 228.721 140.656 228.433 140.512C228.161 140.352 227.793 140.232 227.329 140.152C226.865 140.072 226.353 139.992 225.793 139.912C225.249 139.832 224.697 139.728 224.137 139.6C223.577 139.456 223.065 139.248 222.601 138.976C222.137 138.704 221.761 138.336 221.473 137.872C221.201 137.408 221.065 136.808 221.065 136.072C221.065 135.256 221.297 134.536 221.761 133.912C222.241 133.288 222.929 132.8 223.825 132.448C224.721 132.08 225.793 131.896 227.041 131.896C227.921 131.896 228.817 131.992 229.729 132.184C230.641 132.376 231.401 132.656 232.009 133.024L230.761 135.688C230.137 135.32 229.505 135.072 228.865 134.944C228.241 134.8 227.633 134.728 227.041 134.728C226.209 134.728 225.601 134.84 225.217 135.064C224.833 135.288 224.641 135.576 224.641 135.928C224.641 136.248 224.777 136.488 225.049 136.648C225.337 136.808 225.713 136.936 226.177 137.032C226.641 137.128 227.145 137.216 227.689 137.296C228.249 137.36 228.809 137.464 229.369 137.608C229.929 137.752 230.433 137.96 230.881 138.232C231.345 138.488 231.721 138.848 232.009 139.312C232.297 139.76 232.441 140.352 232.441 141.088C232.441 141.888 232.201 142.6 231.721 143.224C231.241 143.832 230.545 144.312 229.633 144.664C228.737 145.016 227.641 145.192 226.345 145.192ZM117.875 174V157.2H121.091L131.003 169.296H129.443V157.2H133.283V174H130.091L120.155 161.904H121.715V174H117.875ZM143.138 174.192C141.762 174.192 140.538 173.904 139.466 173.328C138.41 172.752 137.57 171.968 136.946 170.976C136.338 169.968 136.034 168.824 136.034 167.544C136.034 166.248 136.338 165.104 136.946 164.112C137.57 163.104 138.41 162.32 139.466 161.76C140.538 161.184 141.762 160.896 143.138 160.896C144.498 160.896 145.714 161.184 146.786 161.76C147.858 162.32 148.698 163.096 149.306 164.088C149.914 165.08 150.218 166.232 150.218 167.544C150.218 168.824 149.914 169.968 149.306 170.976C148.698 171.968 147.858 172.752 146.786 173.328C145.714 173.904 144.498 174.192 143.138 174.192ZM143.138 171.12C143.762 171.12 144.322 170.976 144.818 170.688C145.314 170.4 145.706 169.992 145.994 169.464C146.282 168.92 146.426 168.28 146.426 167.544C146.426 166.792 146.282 166.152 145.994 165.624C145.706 165.096 145.314 164.688 144.818 164.4C144.322 164.112 143.762 163.968 143.138 163.968C142.514 163.968 141.954 164.112 141.458 164.4C140.962 164.688 140.562 165.096 140.258 165.624C139.97 166.152 139.826 166.792 139.826 167.544C139.826 168.28 139.97 168.92 140.258 169.464C140.562 169.992 140.962 170.4 141.458 170.688C141.954 170.976 142.514 171.12 143.138 171.12ZM155.321 174L150.665 161.088H154.193L158.057 172.2H156.377L160.409 161.088H163.577L167.489 172.2H165.809L169.793 161.088H173.105L168.425 174H164.801L161.369 164.472H162.473L158.921 174H155.321Z" fill="#181818"/>
<path d="M180 167.5H212.5M212.5 167.5L203.5 161M212.5 167.5L203.5 174" stroke="#181818" stroke-width="2"/>
<rect opacity="0.01" x="143" y="9" width="132" height="266" fill="#D9D9D9"/>
<rect opacity="0.01" x="15" y="15" width="128" height="260" fill="#D9D9D9"/>
</svg>
