<svg width="128" height="50" viewBox="0 0 128 50" fill="none" xmlns="http://www.w3.org/2000/svg">
<g id="Component 1">
<path id="Vector" d="M22.4942 18.5324C22.4147 18.4001 22.1368 18.2015 21.6604 17.9368C21.1838 17.6456 20.5882 17.3412 19.8736 17.0236C19.1588 16.7059 18.3779 16.4279 17.5308 16.1897C16.6837 15.9515 15.8367 15.8323 14.9896 15.8323C13.8778 15.8323 13.0175 16.0309 12.4086 16.4279C11.7998 16.7986 11.4954 17.3809 11.4954 18.1751C11.4954 18.8103 11.7204 19.3133 12.1704 19.6839C12.6469 20.0544 13.3219 20.3853 14.1954 20.6766C15.069 20.9412 16.1411 21.2589 17.4117 21.6295C19.2118 22.106 20.7736 22.6884 22.0972 23.3766C23.4206 24.0384 24.4266 24.8988 25.1148 25.9576C25.8296 27.0164 26.1869 28.4194 26.1869 30.1664C26.1869 31.7548 25.8957 33.1048 25.3133 34.2165C24.731 35.3019 23.9369 36.1887 22.931 36.8769C21.9515 37.5387 20.8265 38.0284 19.5559 38.3461C18.2853 38.6373 16.9749 38.7829 15.6249 38.7829C14.2484 38.7829 12.8322 38.6505 11.3763 38.3858C9.94684 38.0946 8.57034 37.6975 7.24677 37.1946C5.92321 36.6651 4.70554 36.0299 3.59375 35.2887L6.45265 29.6106C6.55853 29.743 6.90266 29.9944 7.48501 30.365C8.06738 30.7091 8.78211 31.0798 9.62918 31.4768C10.5027 31.8474 11.4689 32.1783 12.5277 32.4695C13.5866 32.7607 14.6587 32.9063 15.744 32.9063C16.9087 32.9063 17.7691 32.7209 18.325 32.3504C18.9073 31.9798 19.1985 31.4636 19.1985 30.8018C19.1985 30.0871 18.8941 29.5312 18.2853 29.1341C17.7029 28.7371 16.8955 28.3797 15.8631 28.0621C14.8572 27.7444 13.6925 27.387 12.369 26.9899C10.6484 26.4605 9.21888 25.8649 8.08062 25.2031C6.96882 24.5413 6.13498 23.734 5.57909 22.7811C5.04967 21.828 4.78495 20.6369 4.78495 19.2074C4.78495 17.222 5.2482 15.5543 6.1747 14.2043C7.12766 12.8278 8.39828 11.7955 9.98655 11.1072C11.5748 10.3925 13.3086 10.0352 15.1881 10.0352C16.5117 10.0352 17.7823 10.194 19 10.5116C20.2441 10.8292 21.3956 11.2264 22.4545 11.7028C23.5398 12.1793 24.506 12.6558 25.3531 13.1323L22.4942 18.5324ZM43.2435 37.3534C42.6611 37.5917 42.0126 37.8299 41.2978 38.0682C40.6096 38.3064 39.8817 38.4917 39.114 38.6241C38.3463 38.7829 37.5918 38.8623 36.8507 38.8623C35.7918 38.8623 34.8124 38.6902 33.9124 38.3461C33.0388 37.9755 32.3374 37.3799 31.8079 36.5593C31.3049 35.7387 31.0535 34.6533 31.0535 33.3033V22.4237H28.3931V17.6192H31.0535V10.9881H37.4066V17.6192H41.6551V22.4237H37.4066V31.1195C37.4066 31.8077 37.5786 32.3107 37.9227 32.6283C38.2668 32.9195 38.7036 33.0651 39.2331 33.0651C39.6831 33.0651 40.1595 32.9857 40.6626 32.8268C41.1919 32.6681 41.6419 32.4959 42.0126 32.3107L43.2435 37.3534ZM45.2028 32.2313C45.2028 30.8548 45.5865 29.6503 46.3542 28.618C47.1219 27.5855 48.1807 26.7781 49.5307 26.1958C50.8808 25.587 52.4294 25.2826 54.1765 25.2826C55.0235 25.2826 55.8574 25.362 56.678 25.5208C57.4986 25.6531 58.2134 25.8517 58.8222 26.1164V25.2031C58.8222 24.0649 58.478 23.1913 57.7898 22.5825C57.1016 21.9737 56.056 21.6693 54.653 21.6693C53.4883 21.6693 52.3897 21.8678 51.3573 22.2648C50.3514 22.6619 49.2793 23.2311 48.141 23.9722L46.2351 19.9221C47.6116 19.0221 49.0411 18.3471 50.5234 17.8971C52.0323 17.4471 53.6206 17.222 55.2883 17.222C58.4118 17.222 60.834 17.9765 62.5546 19.4853C64.3017 20.9678 65.1753 23.1252 65.1753 25.9576V31.3974C65.1753 32.0327 65.2679 32.4827 65.4532 32.7474C65.665 32.9857 66.0223 33.1313 66.5253 33.1842V38.4652C65.9959 38.5711 65.4929 38.6505 65.0164 38.7034C64.5664 38.7564 64.1694 38.7829 63.8253 38.7829C62.634 38.7829 61.7208 38.5446 61.0854 38.0682C60.4766 37.5917 60.0927 36.9431 59.934 36.1225L59.8148 35.2092C58.8884 36.4005 57.7766 37.3137 56.4794 37.9491C55.2089 38.5579 53.8721 38.8623 52.4691 38.8623C51.0925 38.8623 49.8484 38.5711 48.7366 37.9887C47.6514 37.4064 46.791 36.6122 46.1557 35.6063C45.5204 34.6004 45.2028 33.4754 45.2028 32.2313ZM57.8295 33.0254C58.1207 32.7872 58.3589 32.5224 58.5443 32.2313C58.7295 31.94 58.8222 31.6621 58.8222 31.3974V29.5312C58.2927 29.3194 57.6971 29.1606 57.0353 29.0547C56.4001 28.9223 55.8044 28.8562 55.2485 28.8562C54.0838 28.8562 53.1176 29.1209 52.35 29.6503C51.5823 30.1532 51.1984 30.8282 51.1984 31.6754C51.1984 32.1518 51.3308 32.5886 51.5956 32.9857C51.8602 33.3827 52.2176 33.7004 52.6676 33.9386C53.1441 34.1769 53.7 34.296 54.3353 34.296C54.9706 34.296 55.606 34.1769 56.2412 33.9386C56.8766 33.7004 57.406 33.396 57.8295 33.0254ZM83.7953 23.059C82.2599 23.059 80.8702 23.3104 79.6261 23.8134C78.3819 24.2899 77.4819 25.0047 76.926 25.9576V38.4652H70.5729V17.6192H76.4098V21.828C77.1245 20.4251 78.051 19.3265 79.1893 18.5324C80.3275 17.7383 81.5188 17.3279 82.7629 17.3015C83.054 17.3015 83.2658 17.3015 83.3982 17.3015C83.5571 17.3015 83.6894 17.3147 83.7953 17.3412V23.059ZM100.766 37.3534C100.183 37.5917 99.5346 37.8299 98.8199 38.0682C98.1317 38.3064 97.4037 38.4917 96.6361 38.6241C95.8684 38.7829 95.114 38.8623 94.3727 38.8623C93.3139 38.8623 92.3345 38.6902 91.4344 38.3461C90.5609 37.9755 89.8594 37.3799 89.3301 36.5593C88.827 35.7387 88.5756 34.6533 88.5756 33.3033V22.4237H85.9152V17.6192H88.5756V10.9881H94.9286V17.6192H99.1773V22.4237H94.9286V31.1195C94.9286 31.8077 95.1007 32.3107 95.4449 32.6283C95.789 32.9195 96.2258 33.0651 96.7552 33.0651C97.2052 33.0651 97.6817 32.9857 98.1846 32.8268C98.714 32.6681 99.1641 32.4959 99.5346 32.3107L100.766 37.3534Z" fill="url(#paint0_linear_663_3861)"/>
<path id="Vector_2" fill-rule="evenodd" clip-rule="evenodd" d="M111.189 19.4326L104.48 24.1772V27.619V28.2759V39.2559H125.065V28.9565L125.068 28.9586V28.617V28.2754V26.9175V25.306V24.2634L118.231 19.3953L124.974 15.5287V10.168L114.663 16.3506L104.763 10.4108V15.7716L111.189 19.4326ZM122.142 27.136L114.663 22.4772L107.213 27.1631V36.4727L112.678 36.5661V28.7584H116.093V36.4727H122.241L122.142 27.136Z" fill="url(#paint1_linear_663_3861)"/>
</g>
<defs>
<linearGradient id="paint0_linear_663_3861" x1="52.5981" y1="1.44042" x2="52.5981" y2="47.9858" gradientUnits="userSpaceOnUse">
<stop stop-color="#858FFF"/>
<stop offset="1" stop-color="#9DA5FE"/>
</linearGradient>
<linearGradient id="paint1_linear_663_3861" x1="114.774" y1="10.168" x2="114.774" y2="39.2558" gradientUnits="userSpaceOnUse">
<stop stop-color="#858FFF"/>
<stop offset="1" stop-color="#9DA5FE"/>
</linearGradient>
</defs>
</svg>
