<svg width="121" height="47" viewBox="0 0 121 47" fill="none" xmlns="http://www.w3.org/2000/svg">
<path d="M21.2651 17.5186C21.19 17.3935 20.9273 17.2058 20.4769 16.9556C20.0264 16.6803 19.4634 16.3925 18.7878 16.0923C18.1121 15.792 17.3739 15.5292 16.5732 15.304C15.7724 15.0788 14.9717 14.9662 14.1709 14.9662C13.1199 14.9662 12.3067 15.1539 11.7311 15.5292C11.1556 15.8796 10.8678 16.4301 10.8678 17.1808C10.8678 17.7813 11.0805 18.2568 11.5059 18.6071C11.9563 18.9574 12.5944 19.2702 13.4202 19.5455C14.246 19.7957 15.2595 20.096 16.4606 20.4463C18.1622 20.8968 19.6386 21.4473 20.8898 22.0979C22.1409 22.7235 23.0918 23.5368 23.7424 24.5377C24.4181 25.5386 24.7559 26.8649 24.7559 28.5164C24.7559 30.0179 24.4806 31.2941 23.9301 32.345C23.3796 33.371 22.6289 34.2093 21.678 34.8599C20.7521 35.4855 19.6886 35.9484 18.4875 36.2487C17.2864 36.524 16.0477 36.6616 14.7715 36.6616C13.4703 36.6616 12.1315 36.5365 10.7552 36.2863C9.40394 36.011 8.10272 35.6356 6.85154 35.1602C5.60036 34.6597 4.44928 34.0592 3.39829 33.3585L6.10084 27.991C6.20093 28.1161 6.52624 28.3538 7.07675 28.7041C7.62727 29.0294 8.30291 29.3798 9.10366 29.7551C9.92944 30.1054 10.8428 30.4182 11.8437 30.6935C12.8447 30.9688 13.8581 31.1064 14.8841 31.1064C15.9851 31.1064 16.7984 30.9312 17.3239 30.5809C17.8744 30.2306 18.1497 29.7426 18.1497 29.117C18.1497 28.4414 17.8619 27.9159 17.2864 27.5405C16.7358 27.1652 15.9726 26.8274 14.9967 26.5271C14.0458 26.2268 12.9448 25.889 11.6936 25.5136C10.0671 25.0131 8.7158 24.4501 7.63978 23.8245C6.58879 23.1989 5.80055 22.4357 5.27506 21.5349C4.77459 20.634 4.52435 19.508 4.52435 18.1567C4.52435 16.2799 4.96226 14.7034 5.83809 13.4272C6.73894 12.126 7.94007 11.1501 9.44148 10.4995C10.9429 9.82385 12.5819 9.48604 14.3586 9.48604C15.6098 9.48604 16.8109 9.63618 17.962 9.93646C19.1381 10.2367 20.2266 10.6121 21.2276 11.0625C22.2535 11.5129 23.1669 11.9634 23.9677 12.4138L21.2651 17.5186ZM40.8797 35.3103C40.3291 35.5356 39.7161 35.7608 39.0404 35.986C38.3898 36.2112 37.7017 36.3864 36.976 36.5115C36.2503 36.6616 35.5371 36.7367 34.8365 36.7367C33.8355 36.7367 32.9097 36.574 32.0589 36.2487C31.2331 35.8984 30.57 35.3354 30.0695 34.5596C29.594 33.7839 29.3563 32.7579 29.3563 31.4817V21.1971H26.8414V16.6553H29.3563V10.3869H35.362V16.6553H39.3782V21.1971H35.362V29.4173C35.362 30.0679 35.5246 30.5434 35.8499 30.8436C36.1752 31.1189 36.5881 31.2565 37.0886 31.2565C37.514 31.2565 37.9644 31.1815 38.4399 31.0313C38.9403 30.8812 39.3657 30.7185 39.7161 30.5434L40.8797 35.3103ZM42.7318 30.4683C42.7318 29.1671 43.0946 28.0285 43.8203 27.0526C44.546 26.0766 45.5469 25.3134 46.8231 24.7629C48.0993 24.1874 49.5632 23.8996 51.2148 23.8996C52.0155 23.8996 52.8038 23.9747 53.5795 24.1248C54.3552 24.2499 55.0309 24.4376 55.6064 24.6878V23.8245C55.6064 22.7485 55.2811 21.9227 54.6305 21.3472C53.9799 20.7717 52.9915 20.4839 51.6652 20.4839C50.5642 20.4839 49.5257 20.6716 48.5498 21.0469C47.5989 21.4223 46.5854 21.9603 45.5094 22.6609L43.7077 18.8323C45.0089 17.9815 46.3602 17.3434 47.7615 16.918C49.1879 16.4926 50.6893 16.2799 52.2658 16.2799C55.2185 16.2799 57.5082 16.9931 59.1347 18.4194C60.7863 19.8208 61.6121 21.8602 61.6121 24.5377V29.68C61.6121 30.2806 61.6996 30.706 61.8748 30.9562C62.075 31.1815 62.4128 31.3191 62.8883 31.3691V36.3613C62.3878 36.4614 61.9123 36.5365 61.4619 36.5865C61.0365 36.6366 60.6612 36.6616 60.3359 36.6616C59.2098 36.6616 58.3465 36.4364 57.7459 35.986C57.1704 35.5356 56.8075 34.9225 56.6574 34.1467L56.5448 33.2834C55.669 34.4095 54.618 35.2728 53.3918 35.8734C52.1907 36.4489 50.927 36.7367 49.6008 36.7367C48.2995 36.7367 47.1234 36.4614 46.0724 35.9109C45.0465 35.3604 44.2332 34.6097 43.6326 33.6588C43.0321 32.7079 42.7318 31.6444 42.7318 30.4683ZM54.668 31.219C54.9433 30.9938 55.1685 30.7435 55.3437 30.4683C55.5188 30.193 55.6064 29.9303 55.6064 29.68V27.9159C55.1059 27.7157 54.5429 27.5656 53.9173 27.4655C53.3168 27.3403 52.7537 27.2778 52.2282 27.2778C51.1272 27.2778 50.2138 27.528 49.4882 28.0285C48.7625 28.5039 48.3996 29.142 48.3996 29.9428C48.3996 30.3932 48.5247 30.8061 48.775 31.1815C49.0252 31.5568 49.363 31.8571 49.7884 32.0823C50.2389 32.3075 50.7644 32.4201 51.3649 32.4201C51.9655 32.4201 52.5661 32.3075 53.1666 32.0823C53.7672 31.8571 54.2677 31.5693 54.668 31.219ZM79.2138 21.7976C77.7624 21.7976 76.4487 22.0353 75.2726 22.5108C74.0965 22.9612 73.2457 23.6369 72.7202 24.5377V36.3613H66.7145V16.6553H72.2322V20.634C72.9078 19.3078 73.7837 18.2693 74.8597 17.5186C75.9357 16.7679 77.0618 16.38 78.2379 16.355C78.5131 16.355 78.7133 16.355 78.8384 16.355C78.9886 16.355 79.1137 16.3675 79.2138 16.3925V21.7976ZM95.256 35.3103C94.7055 35.5356 94.0924 35.7608 93.4168 35.986C92.7662 36.2112 92.078 36.3864 91.3524 36.5115C90.6267 36.6616 89.9135 36.7367 89.2128 36.7367C88.2119 36.7367 87.286 36.574 86.4352 36.2487C85.6094 35.8984 84.9463 35.3354 84.4459 34.5596C83.9704 33.7839 83.7327 32.7579 83.7327 31.4817V21.1971H81.2178V16.6553H83.7327V10.3869H89.7383V16.6553H93.7546V21.1971H89.7383V29.4173C89.7383 30.0679 89.901 30.5434 90.2263 30.8436C90.5516 31.1189 90.9645 31.2565 91.465 31.2565C91.8904 31.2565 92.3408 31.1815 92.8162 31.0313C93.3167 30.8812 93.7421 30.7185 94.0924 30.5434L95.256 35.3103Z" fill="url(#paint0_linear_479_1525)"/>
<path fill-rule="evenodd" clip-rule="evenodd" d="M105.107 18.3708L98.7656 22.8559L98.7656 26.1095H98.7656L98.7656 26.7304L98.7656 37.11H118.224V27.3738L118.227 27.3758V27.0529V26.73V25.4463V23.923V22.9374L111.764 18.3355L118.138 14.6804L118.138 9.61279L108.391 15.4573L99.033 9.84234L99.033 14.91L105.107 18.3708ZM115.461 25.6529L108.391 21.2489L101.349 25.6785L101.349 34.479L106.515 34.5673L106.515 27.1866H109.743V34.479H115.555L115.461 25.6529Z" fill="url(#paint1_linear_479_1525)"/>
<defs>
<linearGradient id="paint0_linear_479_1525" x1="49.7227" y1="1.36133" x2="49.7227" y2="45.3613" gradientUnits="userSpaceOnUse">
<stop stop-color="#858FFF"/>
<stop offset="1" stop-color="#9DA5FE"/>
</linearGradient>
<linearGradient id="paint1_linear_479_1525" x1="108.496" y1="9.61279" x2="108.496" y2="37.1099" gradientUnits="userSpaceOnUse">
<stop stop-color="#858FFF"/>
<stop offset="1" stop-color="#9DA5FE"/>
</linearGradient>
</defs>
</svg>
