<svg width="73" height="74" viewBox="0 0 73 74" fill="none" xmlns="http://www.w3.org/2000/svg">
<circle cx="37" cy="38" r="34.65" stroke="black" stroke-width="2.7"/>
<path fill-rule="evenodd" clip-rule="evenodd" d="M72.9938 37.1909C53.1747 36.8949 37.1885 20.7827 37.0957 0.91497C37.0021 20.9679 20.7172 37.1951 0.64219 37.1951C0.459058 37.1951 0.276242 37.1937 0.09375 37.191L0.0938692 37.1992C0.276321 37.1965 0.459098 37.1951 0.64219 37.1951C20.5921 37.1951 36.7991 53.2207 37.0921 73.1009L37.0993 73.1008C37.3897 53.4055 53.2993 37.4935 72.9936 37.1993C72.9937 37.1965 72.9937 37.1937 72.9938 37.1909ZM37.0957 0.567176C37.0963 0.445067 37.0974 0.323099 37.0992 0.201276C37.0969 0.201241 37.0945 0.201206 37.0922 0.201172C37.094 0.32303 37.0951 0.445032 37.0957 0.567176Z" fill="black"/>
</svg>
