<svg width="25" height="25" viewBox="0 0 25 25" fill="none" xmlns="http://www.w3.org/2000/svg">
<g clip-path="url(#clip0_524_35)">
<path d="M20.5 4.5C21.0304 4.5 21.5391 4.71071 21.9142 5.08579C22.2893 5.46086 22.5 5.96957 22.5 6.5V16.5C22.5 17.61 21.61 18.5 20.5 18.5H24.5V20.5H0.5V18.5H4.5C3.96957 18.5 3.46086 18.2893 3.08579 17.9142C2.71071 17.5391 2.5 17.0304 2.5 16.5V6.5C2.5 5.39 3.39 4.5 4.5 4.5H20.5ZM20.5 6.5H4.5V16.5H20.5V6.5ZM12.5 12.5C14.71 12.5 16.5 13.4 16.5 14.5V15.5H8.5V14.5C8.5 13.4 10.29 12.5 12.5 12.5ZM12.5 7.5C13.0304 7.5 13.5391 7.71071 13.9142 8.08579C14.2893 8.46086 14.5 8.96957 14.5 9.5C14.5 10.0304 14.2893 10.5391 13.9142 10.9142C13.5391 11.2893 13.0304 11.5 12.5 11.5C11.39 11.5 10.5 10.61 10.5 9.5C10.5 8.39 11.4 7.5 12.5 7.5Z" fill="#F4F4F4"/>
</g>
<defs>
<clipPath id="clip0_524_35">
<rect width="24" height="24" fill="white" transform="translate(0.5 0.5)"/>
</clipPath>
</defs>
</svg>
